# xmcd
#
# Track frame offsets:
#	150
#	35075
#	67533
#	106524
#
# Disc length: 1814 seconds
#
# Revision: 0
# Processed by: cddbd v1.5.2PL0 Copyright (c) Steve Scherf et al.
# Submitted via: EasyCDDAExtractor 2011.0.0.0
#
DISCID=23071404
DTITLE=Loleatta Holloway - Love Sensation '06 (Remixes)
DYEAR=2006
DGENRE=House
TTITLE0=Love Sensation (Hi_Tack Burnin' Up Club Mix)
TTITLE1=Love Sensation (Dead Stereo Remix)
TTITLE2=Love Sensation (7th Heaven's Back To '45 Mix)
TTITLE3=Love Sensation (Original Mix)
EXTD=
EXTT0=
EXTT1=
EXTT2=
EXTT3=
PLAYORDER=
